<svg width="1166" height="809" viewBox="0 0 1166 809" fill="none" xmlns="http://www.w3.org/2000/svg">
<rect width="1440" height="807" fill="#282828"/>
<rect x="788" y="96.9915" width="158.015" height="242.978" fill="url(#paint0_linear_271_697)"/>
<rect x="788" y="96.9915" width="98.991" height="387.856" transform="rotate(-90 788 96.9915)" fill="url(#paint1_linear_271_697)"/>
<rect x="946.024" y="339.969" width="98.991" height="387.856" transform="rotate(-90 946.024 339.969)" fill="url(#paint2_linear_271_697)"/>
<rect x="788" y="566.022" width="158.015" height="242.978" fill="url(#paint3_linear_271_697)"/>
<rect x="788" y="566.022" width="98.991" height="387.856" transform="rotate(-90 788 566.022)" fill="url(#paint4_linear_271_697)"/>
<rect x="946.024" y="809" width="98.991" height="387.856" transform="rotate(-90 946.024 809)" fill="url(#paint5_linear_271_697)"/>
<rect x="863.119" y="335.428" width="158.015" height="242.978" fill="url(#paint6_linear_271_697)"/>
<rect x="863.119" y="335.428" width="98.991" height="387.856" transform="rotate(-90 863.119 335.428)" fill="url(#paint7_linear_271_697)"/>
<rect x="1021.14" y="578.406" width="98.991" height="387.856" transform="rotate(-90 1021.14 578.406)" fill="url(#paint8_linear_271_697)"/>
<defs>
<linearGradient id="paint0_linear_271_697" x1="867.008" y1="96.9915" x2="867.008" y2="339.969" gradientUnits="userSpaceOnUse">
<stop stop-color="#323232"/>
<stop offset="1" stop-color="#282828"/>
</linearGradient>
<linearGradient id="paint1_linear_271_697" x1="836.53" y1="484.847" x2="841.448" y2="97.0294" gradientUnits="userSpaceOnUse">
<stop stop-color="#282828"/>
<stop offset="1" stop-color="#323232"/>
</linearGradient>
<linearGradient id="paint2_linear_271_697" x1="994.555" y1="727.825" x2="999.472" y2="340.007" gradientUnits="userSpaceOnUse">
<stop stop-color="#282828"/>
<stop offset="1" stop-color="#323232"/>
</linearGradient>
<linearGradient id="paint3_linear_271_697" x1="867.008" y1="566.022" x2="867.008" y2="809" gradientUnits="userSpaceOnUse">
<stop stop-color="#323232"/>
<stop offset="1" stop-color="#282828"/>
</linearGradient>
<linearGradient id="paint4_linear_271_697" x1="836.53" y1="953.878" x2="841.448" y2="566.06" gradientUnits="userSpaceOnUse">
<stop stop-color="#282828"/>
<stop offset="1" stop-color="#323232"/>
</linearGradient>
<linearGradient id="paint5_linear_271_697" x1="994.555" y1="1196.86" x2="999.472" y2="809.038" gradientUnits="userSpaceOnUse">
<stop stop-color="#282828"/>
<stop offset="1" stop-color="#323232"/>
</linearGradient>
<linearGradient id="paint6_linear_271_697" x1="942.127" y1="335.428" x2="942.127" y2="578.406" gradientUnits="userSpaceOnUse">
<stop stop-color="#323232"/>
<stop offset="1" stop-color="#282828"/>
</linearGradient>
<linearGradient id="paint7_linear_271_697" x1="911.65" y1="723.284" x2="916.567" y2="335.466" gradientUnits="userSpaceOnUse">
<stop stop-color="#282828"/>
<stop offset="1" stop-color="#323232"/>
</linearGradient>
<linearGradient id="paint8_linear_271_697" x1="1069.68" y1="966.262" x2="1074.59" y2="578.444" gradientUnits="userSpaceOnUse">
<stop stop-color="#282828"/>
<stop offset="1" stop-color="#323232"/>
</linearGradient>
</defs>
</svg>
