<svg width="1440" height="791" viewBox="0 0 1440 791" fill="none" xmlns="http://www.w3.org/2000/svg">
<mask id="mask0_271_905" style="mask-type:alpha" maskUnits="userSpaceOnUse" x="0" y="0" width="1440" height="1024">
<rect width="1440" height="1024" fill="#282828"/>
</mask>
<g mask="url(#mask0_271_905)">
<rect width="1440" height="791" fill="#282828"/>
<rect x="1004" y="152.522" width="126.211" height="187.342" fill="url(#paint0_linear_271_905)"/>
<rect x="1313.78" y="76.1973" width="126.211" height="187.342" fill="url(#paint1_linear_271_905)"/>
<rect x="1004" y="152.522" width="76.3245" height="309.789" transform="rotate(-90 1004 152.522)" fill="url(#paint2_linear_271_905)"/>
<rect x="1130.22" y="339.864" width="76.3245" height="309.789" transform="rotate(-90 1130.22 339.864)" fill="url(#paint3_linear_271_905)"/>
<rect x="878" y="339.991" width="126.211" height="187.342" fill="url(#paint4_linear_271_905)"/>
<rect x="1187.78" y="263.667" width="126.211" height="187.342" fill="url(#paint5_linear_271_905)"/>
<rect x="878" y="339.991" width="76.3245" height="309.789" transform="rotate(-90 878 339.991)" fill="url(#paint6_linear_271_905)"/>
<rect x="1004.22" y="527.333" width="76.3245" height="309.789" transform="rotate(-90 1004.22 527.333)" fill="url(#paint7_linear_271_905)"/>
<rect x="1004" y="527.461" width="126.211" height="187.342" fill="url(#paint8_linear_271_905)"/>
<rect x="1313.78" y="451.136" width="126.211" height="187.342" fill="url(#paint9_linear_271_905)"/>
<rect x="1004" y="527.461" width="76.3245" height="309.789" transform="rotate(-90 1004 527.461)" fill="url(#paint10_linear_271_905)"/>
<rect x="1130.22" y="714.803" width="76.3245" height="309.789" transform="rotate(-90 1130.22 714.803)" fill="url(#paint11_linear_271_905)"/>
<rect x="568" y="603.658" width="126.211" height="187.342" fill="url(#paint12_linear_271_905)"/>
<rect x="877.782" y="527.333" width="126.211" height="187.342" fill="url(#paint13_linear_271_905)"/>
<rect x="568" y="603.658" width="76.3245" height="309.789" transform="rotate(-90 568 603.658)" fill="url(#paint14_linear_271_905)"/>
<rect x="694.218" y="791" width="76.3245" height="309.789" transform="rotate(-90 694.218 791)" fill="url(#paint15_linear_271_905)"/>
<rect x="568" y="76.3248" width="126.211" height="187.342" fill="url(#paint16_linear_271_905)"/>
<rect x="877.782" width="126.211" height="187.342" fill="url(#paint17_linear_271_905)"/>
<rect x="568" y="76.3248" width="76.3245" height="309.789" transform="rotate(-90 568 76.3248)" fill="url(#paint18_linear_271_905)"/>
<rect x="694.218" y="263.667" width="76.3245" height="309.789" transform="rotate(-90 694.218 263.667)" fill="url(#paint19_linear_271_905)"/>
</g>
<defs>
<linearGradient id="paint0_linear_271_905" x1="1067.11" y1="152.522" x2="1067.11" y2="339.864" gradientUnits="userSpaceOnUse">
<stop stop-color="#323232"/>
<stop offset="1" stop-color="#282828"/>
</linearGradient>
<linearGradient id="paint1_linear_271_905" x1="1376.89" y1="76.1973" x2="1376.89" y2="263.539" gradientUnits="userSpaceOnUse">
<stop stop-color="#323232"/>
<stop offset="1" stop-color="#282828"/>
</linearGradient>
<linearGradient id="paint2_linear_271_905" x1="1041.42" y1="462.311" x2="1045.49" y2="152.556" gradientUnits="userSpaceOnUse">
<stop stop-color="#282828"/>
<stop offset="1" stop-color="#323232"/>
</linearGradient>
<linearGradient id="paint3_linear_271_905" x1="1167.64" y1="649.653" x2="1171.7" y2="339.898" gradientUnits="userSpaceOnUse">
<stop stop-color="#282828"/>
<stop offset="1" stop-color="#323232"/>
</linearGradient>
<linearGradient id="paint4_linear_271_905" x1="941.105" y1="339.991" x2="941.105" y2="527.333" gradientUnits="userSpaceOnUse">
<stop stop-color="#323232"/>
<stop offset="1" stop-color="#282828"/>
</linearGradient>
<linearGradient id="paint5_linear_271_905" x1="1250.89" y1="263.667" x2="1250.89" y2="451.009" gradientUnits="userSpaceOnUse">
<stop stop-color="#323232"/>
<stop offset="1" stop-color="#282828"/>
</linearGradient>
<linearGradient id="paint6_linear_271_905" x1="915.418" y1="649.781" x2="919.487" y2="340.025" gradientUnits="userSpaceOnUse">
<stop stop-color="#282828"/>
<stop offset="1" stop-color="#323232"/>
</linearGradient>
<linearGradient id="paint7_linear_271_905" x1="1041.64" y1="837.123" x2="1045.7" y2="527.367" gradientUnits="userSpaceOnUse">
<stop stop-color="#282828"/>
<stop offset="1" stop-color="#323232"/>
</linearGradient>
<linearGradient id="paint8_linear_271_905" x1="1067.11" y1="527.461" x2="1067.11" y2="714.803" gradientUnits="userSpaceOnUse">
<stop stop-color="#323232"/>
<stop offset="1" stop-color="#282828"/>
</linearGradient>
<linearGradient id="paint9_linear_271_905" x1="1376.89" y1="451.136" x2="1376.89" y2="638.478" gradientUnits="userSpaceOnUse">
<stop stop-color="#323232"/>
<stop offset="1" stop-color="#282828"/>
</linearGradient>
<linearGradient id="paint10_linear_271_905" x1="1041.42" y1="837.25" x2="1045.49" y2="527.495" gradientUnits="userSpaceOnUse">
<stop stop-color="#282828"/>
<stop offset="1" stop-color="#323232"/>
</linearGradient>
<linearGradient id="paint11_linear_271_905" x1="1167.64" y1="1024.59" x2="1171.7" y2="714.837" gradientUnits="userSpaceOnUse">
<stop stop-color="#282828"/>
<stop offset="1" stop-color="#323232"/>
</linearGradient>
<linearGradient id="paint12_linear_271_905" x1="631.105" y1="603.658" x2="631.105" y2="791" gradientUnits="userSpaceOnUse">
<stop stop-color="#323232"/>
<stop offset="1" stop-color="#282828"/>
</linearGradient>
<linearGradient id="paint13_linear_271_905" x1="940.887" y1="527.333" x2="940.887" y2="714.675" gradientUnits="userSpaceOnUse">
<stop stop-color="#323232"/>
<stop offset="1" stop-color="#282828"/>
</linearGradient>
<linearGradient id="paint14_linear_271_905" x1="605.418" y1="913.447" x2="609.487" y2="603.692" gradientUnits="userSpaceOnUse">
<stop stop-color="#282828"/>
<stop offset="1" stop-color="#323232"/>
</linearGradient>
<linearGradient id="paint15_linear_271_905" x1="731.636" y1="1100.79" x2="735.705" y2="791.034" gradientUnits="userSpaceOnUse">
<stop stop-color="#282828"/>
<stop offset="1" stop-color="#323232"/>
</linearGradient>
<linearGradient id="paint16_linear_271_905" x1="631.105" y1="76.3248" x2="631.105" y2="263.667" gradientUnits="userSpaceOnUse">
<stop stop-color="#323232"/>
<stop offset="1" stop-color="#282828"/>
</linearGradient>
<linearGradient id="paint17_linear_271_905" x1="940.887" y1="0" x2="940.887" y2="187.342" gradientUnits="userSpaceOnUse">
<stop stop-color="#323232"/>
<stop offset="1" stop-color="#282828"/>
</linearGradient>
<linearGradient id="paint18_linear_271_905" x1="605.418" y1="386.114" x2="609.487" y2="76.3588" gradientUnits="userSpaceOnUse">
<stop stop-color="#282828"/>
<stop offset="1" stop-color="#323232"/>
</linearGradient>
<linearGradient id="paint19_linear_271_905" x1="731.636" y1="573.456" x2="735.705" y2="263.7" gradientUnits="userSpaceOnUse">
<stop stop-color="#282828"/>
<stop offset="1" stop-color="#323232"/>
</linearGradient>
</defs>
</svg>
