<svg width="56" height="57" viewBox="0 0 56 57" fill="none" xmlns="http://www.w3.org/2000/svg">
<circle cx="28" cy="28.5" r="28" fill="#323232"/>
<g clip-path="url(#clip0_241_97)">
<path fill-rule="evenodd" clip-rule="evenodd" d="M32.6699 29.6299C34.0399 30.5599 34.9999 31.8199 34.9999 33.4999V36.4999H38.9999V33.4999C38.9999 31.3199 35.4299 30.0299 32.6699 29.6299Z" fill="#FAFAFA"/>
<path d="M25 28.5C27.2091 28.5 29 26.7091 29 24.5C29 22.2909 27.2091 20.5 25 20.5C22.7909 20.5 21 22.2909 21 24.5C21 26.7091 22.7909 28.5 25 28.5Z" fill="#FAFAFA"/>
<path fill-rule="evenodd" clip-rule="evenodd" d="M30.9999 28.5C33.2099 28.5 34.9999 26.71 34.9999 24.5C34.9999 22.29 33.2099 20.5 30.9999 20.5C30.5299 20.5 30.0899 20.6 29.6699 20.74C30.4999 21.77 30.9999 23.08 30.9999 24.5C30.9999 25.92 30.4999 27.23 29.6699 28.26C30.0899 28.4 30.5299 28.5 30.9999 28.5Z" fill="#FAFAFA"/>
<path fill-rule="evenodd" clip-rule="evenodd" d="M25 29.5C22.33 29.5 17 30.84 17 33.5V36.5H33V33.5C33 30.84 27.67 29.5 25 29.5Z" fill="#FAFAFA"/>
</g>
<defs>
<clipPath id="clip0_241_97">
<rect width="24" height="24" fill="white" transform="translate(16 16.5)"/>
</clipPath>
</defs>
</svg>
